<svg width="61" height="13" viewBox="0 0 61 13" fill="none" xmlns="http://www.w3.org/2000/svg">
<path d="M0.75 10.785C0.67 10.665 0.63 10.55 0.63 10.44C0.64 10.32 0.705 10.225 0.825 10.155C0.905 10.085 0.995 10.055 1.095 10.065C1.205 10.075 1.305 10.125 1.395 10.215C1.665 10.565 1.99 10.85 2.37 11.07C2.76 11.28 3.22 11.385 3.75 11.385C4.03 11.385 4.305 11.34 4.575 11.25C4.855 11.15 5.085 11.005 5.265 10.815C5.445 10.615 5.535 10.365 5.535 10.065C5.535 9.755 5.445 9.505 5.265 9.315C5.085 9.125 4.85 8.975 4.56 8.865C4.28 8.755 3.98 8.66 3.66 8.58C3.32 8.49 2.99 8.39 2.67 8.28C2.35 8.16 2.065 8.015 1.815 7.845C1.575 7.665 1.38 7.45 1.23 7.2C1.08 6.95 1.005 6.645 1.005 6.285C1.005 5.865 1.12 5.495 1.35 5.175C1.58 4.855 1.89 4.605 2.28 4.425C2.68 4.245 3.13 4.155 3.63 4.155C3.88 4.155 4.15 4.19 4.44 4.26C4.73 4.32 5.015 4.425 5.295 4.575C5.575 4.725 5.825 4.93 6.045 5.19C6.135 5.28 6.18 5.385 6.18 5.505C6.18 5.615 6.13 5.715 6.03 5.805C5.95 5.865 5.855 5.895 5.745 5.895C5.645 5.895 5.56 5.855 5.49 5.775C5.25 5.505 4.965 5.3 4.635 5.16C4.305 5.02 3.95 4.95 3.57 4.95C3.28 4.95 3.005 5 2.745 5.1C2.495 5.19 2.285 5.33 2.115 5.52C1.945 5.71 1.86 5.96 1.86 6.27C1.88 6.56 1.98 6.795 2.16 6.975C2.35 7.155 2.595 7.305 2.895 7.425C3.205 7.545 3.55 7.655 3.93 7.755C4.25 7.835 4.555 7.93 4.845 8.04C5.145 8.15 5.405 8.29 5.625 8.46C5.855 8.62 6.035 8.825 6.165 9.075C6.305 9.325 6.375 9.64 6.375 10.02C6.375 10.46 6.25 10.84 6 11.16C5.76 11.48 5.435 11.725 5.025 11.895C4.615 12.065 4.16 12.15 3.66 12.15C3.12 12.15 2.595 12.045 2.085 11.835C1.585 11.625 1.14 11.275 0.75 10.785ZM11.6813 12.15C10.9113 12.15 10.2313 11.985 9.64125 11.655C9.05125 11.325 8.59125 10.865 8.26125 10.275C7.93125 9.685 7.76625 8.995 7.76625 8.205C7.76625 7.355 7.93125 6.63 8.26125 6.03C8.60125 5.43 9.03625 4.97 9.56625 4.65C10.1063 4.32 10.6763 4.155 11.2763 4.155C11.7163 4.155 12.1413 4.235 12.5513 4.395C12.9713 4.545 13.3413 4.775 13.6613 5.085C13.9913 5.385 14.2513 5.755 14.4413 6.195C14.6413 6.635 14.7513 7.145 14.7713 7.725C14.7613 7.845 14.7113 7.95 14.6213 8.04C14.5313 8.12 14.4263 8.16 14.3063 8.16H8.29125L8.11125 7.35H14.0213L13.8263 7.53V7.23C13.7863 6.76 13.6363 6.36 13.3763 6.03C13.1163 5.7 12.8013 5.45 12.4313 5.28C12.0613 5.11 11.6763 5.025 11.2763 5.025C10.9763 5.025 10.6663 5.085 10.3463 5.205C10.0363 5.325 9.75125 5.515 9.49125 5.775C9.24125 6.025 9.03625 6.35 8.87625 6.75C8.71625 7.14 8.63625 7.605 8.63625 8.145C8.63625 8.735 8.75625 9.27 8.99625 9.75C9.23625 10.23 9.58125 10.61 10.0313 10.89C10.4913 11.17 11.0363 11.31 11.6663 11.31C12.0163 11.31 12.3313 11.26 12.6113 11.16C12.8913 11.06 13.1363 10.93 13.3463 10.77C13.5563 10.6 13.7313 10.425 13.8713 10.245C13.9813 10.155 14.0913 10.11 14.2013 10.11C14.3013 10.11 14.3863 10.15 14.4563 10.23C14.5363 10.31 14.5763 10.4 14.5763 10.5C14.5763 10.62 14.5263 10.725 14.4263 10.815C14.1263 11.175 13.7363 11.49 13.2563 11.76C12.7763 12.02 12.2513 12.15 11.6813 12.15ZM25.8027 4.17C25.9127 4.17 26.0127 4.21 26.1027 4.29C26.2027 4.37 26.2527 4.48 26.2527 4.62C26.2527 4.65 26.2477 4.685 26.2377 4.725C26.2277 4.765 26.2177 4.795 26.2077 4.815L23.8977 11.715C23.8577 11.805 23.7927 11.88 23.7027 11.94C23.6227 11.99 23.5377 12.01 23.4477 12C23.2677 11.99 23.1327 11.895 23.0427 11.715L20.9277 6.735L21.1977 6.795L19.3227 11.715C19.2427 11.895 19.1077 11.99 18.9177 12C18.8277 12.01 18.7377 11.99 18.6477 11.94C18.5577 11.88 18.4977 11.805 18.4677 11.715L16.0977 4.815C16.0677 4.745 16.0527 4.68 16.0527 4.62C16.0527 4.49 16.0927 4.385 16.1727 4.305C16.2627 4.215 16.3777 4.17 16.5177 4.17C16.6077 4.17 16.6877 4.195 16.7577 4.245C16.8377 4.295 16.8927 4.37 16.9227 4.47L19.0527 10.86L18.7677 10.845L20.7027 5.97C20.7827 5.78 20.9227 5.685 21.1227 5.685C21.2227 5.685 21.3077 5.71 21.3777 5.76C21.4477 5.81 21.5027 5.88 21.5427 5.97L23.5977 10.86L23.2677 10.875L25.3827 4.47C25.4427 4.27 25.5827 4.17 25.8027 4.17ZM34.3206 4.335C34.4506 4.335 34.5556 4.38 34.6356 4.47C34.7256 4.56 34.7706 4.67 34.7706 4.8V11.55C34.7706 11.67 34.7256 11.775 34.6356 11.865C34.5456 11.955 34.4406 12 34.3206 12C34.1906 12 34.0806 11.955 33.9906 11.865C33.9106 11.775 33.8706 11.67 33.8706 11.55V9.765L34.1256 9.645C34.1256 9.925 34.0456 10.21 33.8856 10.5C33.7356 10.79 33.5256 11.06 33.2556 11.31C32.9856 11.56 32.6656 11.765 32.2956 11.925C31.9356 12.075 31.5456 12.15 31.1256 12.15C30.4456 12.15 29.8356 11.975 29.2956 11.625C28.7656 11.275 28.3456 10.795 28.0356 10.185C27.7356 9.575 27.5856 8.89 27.5856 8.13C27.5856 7.35 27.7406 6.665 28.0506 6.075C28.3606 5.475 28.7806 5.005 29.3106 4.665C29.8406 4.325 30.4406 4.155 31.1106 4.155C31.5406 4.155 31.9406 4.23 32.3106 4.38C32.6906 4.53 33.0206 4.735 33.3006 4.995C33.5806 5.255 33.7956 5.555 33.9456 5.895C34.1056 6.225 34.1856 6.57 34.1856 6.93L33.8706 6.705V4.8C33.8706 4.67 33.9106 4.56 33.9906 4.47C34.0806 4.38 34.1906 4.335 34.3206 4.335ZM31.2006 11.31C31.7306 11.31 32.2006 11.175 32.6106 10.905C33.0206 10.625 33.3406 10.245 33.5706 9.765C33.8106 9.275 33.9306 8.73 33.9306 8.13C33.9306 7.54 33.8106 7.01 33.5706 6.54C33.3406 6.07 33.0206 5.695 32.6106 5.415C32.2006 5.135 31.7306 4.995 31.2006 4.995C30.6806 4.995 30.2106 5.13 29.7906 5.4C29.3806 5.67 29.0556 6.04 28.8156 6.51C28.5856 6.98 28.4706 7.52 28.4706 8.13C28.4706 8.73 28.5856 9.275 28.8156 9.765C29.0556 10.245 29.3806 10.625 29.7906 10.905C30.2006 11.175 30.6706 11.31 31.2006 11.31ZM38.1223 11.55C38.1223 11.67 38.0773 11.775 37.9873 11.865C37.8973 11.955 37.7923 12 37.6723 12C37.5423 12 37.4323 11.955 37.3423 11.865C37.2623 11.775 37.2223 11.67 37.2223 11.55V1.35C37.2223 1.23 37.2673 1.125 37.3573 1.035C37.4473 0.945 37.5523 0.9 37.6723 0.9C37.8023 0.9 37.9073 0.945 37.9873 1.035C38.0773 1.125 38.1223 1.23 38.1223 1.35V11.55ZM40.0504 4.365H43.5454C43.6654 4.365 43.7654 4.41 43.8454 4.5C43.9254 4.58 43.9654 4.68 43.9654 4.8C43.9654 4.91 43.9254 5.005 43.8454 5.085C43.7654 5.165 43.6654 5.205 43.5454 5.205H40.0504C39.9304 5.205 39.8254 5.165 39.7354 5.085C39.6554 4.995 39.6154 4.895 39.6154 4.785C39.6154 4.665 39.6554 4.565 39.7354 4.485C39.8254 4.405 39.9304 4.365 40.0504 4.365ZM41.5954 2.25C41.7254 2.25 41.8304 2.295 41.9104 2.385C42.0004 2.475 42.0454 2.58 42.0454 2.7V10.23C42.0454 10.51 42.0804 10.72 42.1504 10.86C42.2304 11 42.3304 11.095 42.4504 11.145C42.5704 11.185 42.6904 11.205 42.8104 11.205C42.8904 11.205 42.9604 11.195 43.0204 11.175C43.0904 11.145 43.1654 11.13 43.2454 11.13C43.3354 11.13 43.4104 11.165 43.4704 11.235C43.5404 11.305 43.5754 11.395 43.5754 11.505C43.5754 11.645 43.4954 11.765 43.3354 11.865C43.1754 11.955 42.9854 12 42.7654 12C42.6754 12 42.5404 11.995 42.3604 11.985C42.1804 11.965 41.9954 11.91 41.8054 11.82C41.6154 11.72 41.4554 11.55 41.3254 11.31C41.2054 11.07 41.1454 10.725 41.1454 10.275V2.7C41.1454 2.58 41.1854 2.475 41.2654 2.385C41.3554 2.295 41.4654 2.25 41.5954 2.25ZM49.0201 12.15C48.2501 12.15 47.5701 11.985 46.9801 11.655C46.3901 11.325 45.9301 10.865 45.6001 10.275C45.2701 9.685 45.1051 8.995 45.1051 8.205C45.1051 7.355 45.2701 6.63 45.6001 6.03C45.9401 5.43 46.3751 4.97 46.9051 4.65C47.4451 4.32 48.0151 4.155 48.6151 4.155C49.0551 4.155 49.4801 4.235 49.8901 4.395C50.3101 4.545 50.6801 4.775 51.0001 5.085C51.3301 5.385 51.5901 5.755 51.7801 6.195C51.9801 6.635 52.0901 7.145 52.1101 7.725C52.1001 7.845 52.0501 7.95 51.9601 8.04C51.8701 8.12 51.7651 8.16 51.6451 8.16H45.6301L45.4501 7.35H51.3601L51.1651 7.53V7.23C51.1251 6.76 50.9751 6.36 50.7151 6.03C50.4551 5.7 50.1401 5.45 49.7701 5.28C49.4001 5.11 49.0151 5.025 48.6151 5.025C48.3151 5.025 48.0051 5.085 47.6851 5.205C47.3751 5.325 47.0901 5.515 46.8301 5.775C46.5801 6.025 46.3751 6.35 46.2151 6.75C46.0551 7.14 45.9751 7.605 45.9751 8.145C45.9751 8.735 46.0951 9.27 46.3351 9.75C46.5751 10.23 46.9201 10.61 47.3701 10.89C47.8301 11.17 48.3751 11.31 49.0051 11.31C49.3551 11.31 49.6701 11.26 49.9501 11.16C50.2301 11.06 50.4751 10.93 50.6851 10.77C50.8951 10.6 51.0701 10.425 51.2101 10.245C51.3201 10.155 51.4301 10.11 51.5401 10.11C51.6401 10.11 51.7251 10.15 51.7951 10.23C51.8751 10.31 51.9151 10.4 51.9151 10.5C51.9151 10.62 51.8651 10.725 51.7651 10.815C51.4651 11.175 51.0751 11.49 50.5951 11.76C50.1151 12.02 49.5901 12.15 49.0201 12.15ZM56.6616 4.155C57.4416 4.155 58.1266 4.32 58.7166 4.65C59.3066 4.98 59.7666 5.44 60.0966 6.03C60.4266 6.62 60.5916 7.31 60.5916 8.1C60.5916 8.94 60.4216 9.665 60.0816 10.275C59.7516 10.885 59.3166 11.35 58.7766 11.67C58.2466 11.99 57.6816 12.15 57.0816 12.15C56.6416 12.15 56.2116 12.075 55.7916 11.925C55.3816 11.765 55.0116 11.535 54.6816 11.235C54.3616 10.925 54.1016 10.55 53.9016 10.11C53.7116 9.67 53.6066 9.165 53.5866 8.595C53.5966 8.475 53.6416 8.37 53.7216 8.28C53.8116 8.19 53.9166 8.145 54.0366 8.145H60.0666L60.2466 8.955H54.3366L54.5316 8.775V9.075C54.5816 9.545 54.7316 9.945 54.9816 10.275C55.2416 10.605 55.5566 10.855 55.9266 11.025C56.3066 11.195 56.6916 11.28 57.0816 11.28C57.3816 11.28 57.6866 11.22 57.9966 11.1C58.3066 10.98 58.5916 10.795 58.8516 10.545C59.1116 10.285 59.3216 9.96 59.4816 9.57C59.6416 9.17 59.7216 8.7 59.7216 8.16C59.7216 7.57 59.6016 7.04 59.3616 6.57C59.1216 6.09 58.7716 5.71 58.3116 5.43C57.8616 5.14 57.3216 4.995 56.6916 4.995C56.3516 4.995 56.0366 5.05 55.7466 5.16C55.4666 5.26 55.2166 5.39 54.9966 5.55C54.7866 5.71 54.6116 5.88 54.4716 6.06C54.3816 6.15 54.2766 6.195 54.1566 6.195C54.0466 6.195 53.9566 6.155 53.8866 6.075C53.8166 5.995 53.7816 5.905 53.7816 5.805C53.7816 5.685 53.8316 5.58 53.9316 5.49C54.2216 5.13 54.6066 4.82 55.0866 4.56C55.5766 4.29 56.1016 4.155 56.6616 4.155Z" fill="black"/>
</svg>
